<svg xmlns="http://www.w3.org/2000/svg" version="1.1" xmlns:xlink="http://www.w3.org/1999/xlink" width="500" height="500"><svg xmlns="http://www.w3.org/2000/svg" viewBox="0 0 500 500">
  <defs>
    <clipPath id="SvgjsClipPath1003" transform="">
      <path d="M 0 500 L 2000 500 L 2000 0 L 0 0 Z" style="fill: none; clip-rule: nonzero;"></path>
    </clipPath>
    <clipPath id="SvgjsClipPath1002" transform="">
      <path d="M 0 500 L 2000 500 L 2000 0 L 0 0 Z" style="fill: none; clip-rule: nonzero;"></path>
    </clipPath>
  </defs>
  <g class="page-1" transform="matrix(1, 0, 0, -1, 38.050579, 524.864079)">
    <g transform="matrix(0.249796, 0, 0, 0.998771, -37.608423, 25.170183)" style="">
      <path d="M 0 0 L 2000 0 L 2000 500 L 0 500 Z" style="fill-opacity: 1; fill: rgb(33, 118, 192);"></path>
      <path d="M 0 500 L 2000 500 L 2000 0 L 0 0 Z" style="fill: rgb(33, 118, 192);"></path>
    </g>
    <g style="clip-path: url(&quot;#clippath0&quot;);">
      <g transform="matrix(1454.6399675 0 0 211.1999953 507.8042603 130.1871812)"></g>
    </g>
    <g style="clip-path: url(&quot;#clippath0&quot;);">
      <g transform="matrix(1454.6399675 0 0 211.1999953 507.8042603 130.1871812)"></g>
    </g>
    <g transform="translate(560.6377 310.3369)"></g>
    <g transform="">
      <path d="M 0 500 L 2000 500 L 2000 0 L 0 0 Z" style="fill: none;"></path>
    </g>
    <g style="clip-path: url(&quot;#clippath1&quot;);">
      <g transform="translate(647.1245 237.4209)"></g>
    </g>
    <g style="clip-path: url(&quot;#clippath1&quot;);">
      <g transform="translate(855.1367 197.1299)"></g>
    </g>
    <g style="clip-path: url(&quot;#clippath1&quot;);">
      <g transform="translate(893.6694 336.6123)"></g>
    </g>
    <g style="clip-path: url(&quot;#clippath1&quot;);">
      <g transform="translate(1098.3994 291.2866)"></g>
    </g>
    <g style="clip-path: url(&quot;#clippath1&quot;);">
      <g transform="translate(1154.0127 310.3369)"></g>
    </g>
    <g style="clip-path: url(&quot;#clippath1&quot;);">
      <g transform="translate(1298.9658 249.9019)"></g>
    </g>
    <g style="clip-path: url(&quot;#clippath1&quot;);" transform="matrix(1.269583, 0, 0, 1.269583, -85.96763, -26.100493)">
      <g transform=""></g>
      <g transform="translate(1538.5059 197.1299)"></g>
      <g transform="translate(1581.1992 197.1299)"></g>
      <g transform="translate(1706.0068 336.8315)"></g>
      <g transform="translate(1840.8877 249.9019)"></g>
      <g transform="translate(1920.1484 321.7222)"></g>
      <g transform="translate(417.1396 256.9648)">
        <path d="M 0 0 L -46.4309997559 -30.954000473 L -46.4309997559 -75.5039978027 L 0 -44.5569992065 Z M -3.7279999256 8.6759996414 L -51.0740013123 40.2439994812 L -98.4199981689 8.6759996414 L -51.0740013123 -22.8829994202 Z M 9.2869997025 8.6759996414 L 9.2869997025 -47.0419998169 C 9.2869997025 -48.6020011902 8.5059995651 -50.0530014038 7.2189998627 -50.9049987793 L -48.4980010986 -88.047996521 C -50.0579986572 -89.0999984741 -52.0890007019 -89.0999984741 -53.6489982605 -88.047996521 L -85.0260009766 -67.2470016479 C -87.1669998169 -65.8320007324 -87.7649993896 -62.9480018616 -86.3330001831 -60.8260002136 C -84.9169998169 -58.6679992676 -82.0159988403 -58.0880012512 -79.9120025635 -59.5209999084 L -55.716999054 -75.5270004272 L -55.716999054 -30.954000473 L -102.1480026245 0 L -102.1480026245 -34.9630012512 C -102.1480026245 -37.5200004578 -104.233001709 -39.6049995422 -106.7910003662 -39.6049995422 C -109.3479995728 -39.6049995422 -111.4339981079 -37.5200004578 -111.4339981079 -34.9630012512 L -111.4339981079 8.6759996414 C -111.4339981079 10.2270002365 -110.6539993286 11.6770000458 -109.3669967651 12.5389995575 L -53.6489982605 49.6839981079 C -52.0890007019 50.7179985046 -50.0579986572 50.7179985046 -48.4980010986 49.6839981079 L 7.2189998627 12.5389995575 C 8.5059995651 11.6770000458 9.2869997025 10.2270002365 9.2869997025 8.6759996414 M -362.1610107422 -44.561000824 L -315.7300109863 -75.5070037842 L -315.7300109863 -30.9580001831 L -362.1610107422 -0.003 Z M -358.4339904785 8.6730003357 L -311.0870056152 -22.8869991302 L -263.7409973145 8.6730003357 L -311.0870056152 40.2400016785 Z M -371.4469909668 -47.0460014343 L -371.4469909668 8.6719999313 C -371.4469909668 10.2229995728 -370.6669921875 11.6739997864 -369.3800048828 12.5360002518 L -313.6629943848 49.6809997559 C -312.1029968262 50.7150001526 -310.0710144043 50.7150001526 -308.5119934082 49.6809997559 L -252.7940063477 12.5360002518 C -251.5070037842 11.6739997864 -250.7270050049 10.2229995728 -250.7270050049 8.6719999313 L -250.7270050049 -34.9659996033 C -250.7270050049 -37.5229988098 -252.81199646 -39.6090011597 -255.3699951172 -39.6090011597 C -257.9270019531 -39.6090011597 -260.0130004883 -37.5229988098 -260.0130004883 -34.9659996033 L -260.0130004883 -0.003 L -306.4440002441 -30.9580001831 L -306.4440002441 -75.5299987793 L -282.2489929199 -59.5229988098 C -280.1449890137 -58.0909996033 -277.2430114746 -58.6710014343 -275.8290100098 -60.8300018311 C -274.3959960938 -62.9519996643 -274.9939880371 -65.8359985352 -277.1350097656 -67.25 L -308.5119934082 -88.0520019531 C -310.0710144043 -89.1039962769 -312.1029968262 -89.1039962769 -313.6629943848 -88.0520019531 L -369.3800048828 -50.908000946 C -370.6669921875 -50.0559997559 -371.4469909668 -48.6049995422 -371.4469909668 -47.0460014343 M -130.0059967041 -120.7249984741 L -176.43699646 -151.6799926758 L -176.43699646 -196.2220001221 L -130.0059967041 -165.2729949951 Z M -133.7350006104 -112.0500030518 L -181.0809936523 -80.4899978638 L -228.425994873 -112.0490036011 L -181.0809936523 -143.608001709 Z M -185.7239990234 -151.6799926758 L -232.154006958 -120.7249984741 L -232.154006958 -165.2729949951 L -185.7239990234 -196.2220001221 Z M -120.7200012207 -167.7579956055 C -120.7200012207 -169.3179931641 -121.5 -170.7689971924 -122.7880020142 -171.6210021973 L -178.5050048828 -208.766998291 C -180.0650024414 -209.8179931641 -182.095993042 -209.8179931641 -183.6560058594 -208.766998291 L -239.3730010986 -171.6210021973 C -240.6609954834 -170.7689971924 -241.4400024414 -169.3179931641 -241.4400024414 -167.7579956055 L -241.4400024414 -112.0500030518 C -241.4400024414 -110.4889984131 -240.6609954834 -109.0380020142 -239.3730010986 -108.1859970093 L -183.6560058594 -71.0410003662 C -182.095993042 -69.9889984131 -180.0650024414 -69.9889984131 -178.5050048828 -71.0410003662 L -122.7880020142 -108.1859970093 C -121.5 -109.0380020142 -120.7200012207 -110.4889984131 -120.7200012207 -112.0500030518 Z M -133.733001709 129.3939971924 L -181.0809936523 160.9620056152 L -228.4279937744 129.3939971924 L -181.0809936523 97.827003479 Z M -130.0059967041 85.7470016479 L -130.0059967041 120.7180023193 L -176.43699646 89.763999939 L -176.43699646 45.1910018921 L -152.2420043945 61.2070007324 C -150.1390075684 62.6129989624 -147.2369995117 62.0499992371 -145.8220062256 59.9010009766 C -144.3890075684 57.7610015869 -144.9880065918 54.8769989014 -147.1280059814 53.4620018005 L -178.5050048828 32.6679992676 C -180.0650024414 31.6159992218 -182.095993042 31.6159992218 -183.6560058594 32.6679992676 L -215.0330047607 53.4620018005 C -217.1730041504 54.8769989014 -217.7709960938 57.7610015869 -216.3390045166 59.9010009766 C -214.9239959717 62.0499992371 -212.0039978027 62.6129989624 -209.9179992676 61.2070007324 L -185.7239990234 45.1910018921 L -185.7239990234 89.763999939 L -232.154006958 120.71900177 L -232.154006958 85.7470016479 C -232.154006958 83.1800003052 -234.2400054932 81.1039962769 -236.7969970703 81.1039962769 C -239.3549957275 81.1039962769 -241.4400024414 83.1800003052 -241.4400024414 85.7470016479 L -241.4400024414 129.3939971924 C -241.4400024414 130.9450073242 -240.6609954834 132.3959960938 -239.3730010986 133.2570037842 L -183.6560058594 170.4029998779 C -182.095993042 171.43699646 -180.0650024414 171.43699646 -178.5050048828 170.4029998779 L -122.7880020142 133.2570037842 C -121.5 132.3959960938 -120.7200012207 130.9450073242 -120.7200012207 129.3939971924 L -120.7200012207 85.7470016479 C -120.7200012207 83.1800003052 -122.8059997559 81.1039962769 -125.3629989624 81.1039962769 C -127.9209976196 81.1039962769 -130.0059967041 83.1800003052 -130.0059967041 85.7470016479" style="fill: rgb(255, 255, 255); fill-opacity: 1;"></path>
      </g>
      <g transform="translate(320.6143 292.8979)">
        <path d="M 0 0 L -59.4350013733 43.2799987793 C -61.5019989014 44.7859992981 -61.9560012817 47.6879997253 -60.4510002136 49.7739982605 C -58.9459991455 51.8230018616 -56.0620002747 52.2949981689 -53.9580001831 50.7900009155 L 5.478000164 7.5089998245 C 7.5450000763 6.0029997826 7.9990000725 3.1010000706 6.4930000305 1.0160000324 C 4.9869999886 -1.0340000391 2.1040000916 -1.506000042 0 0" style="fill: rgb(255, 107, 41); fill-opacity: 1;"></path>
      </g>
      <g transform="translate(341.9614 221.9443)">
        <path d="M 0 0 C -1.5049999952 2.0499999523 -4.388999939 2.5209999084 -6.4930000305 1.0160000324 L -65.9280014038 -42.2659988403 C -67.9960021973 -43.7709999084 -68.4489974976 -46.6730003357 -66.9440002441 -48.7589988708 C -65.43800354 -50.8079986572 -62.5550003052 -51.2789993286 -60.4510002136 -49.7739982605 L -1.0160000324 -6.4930000305 C 1.0520000458 -4.9869999886 1.5049999952 -2.0859999657 0 0" style="fill: rgb(255, 107, 41); fill-opacity: 1;"></path>
      </g>
      <g transform="translate(145.0112 293.9136)">
        <path d="M 0 0 C 1.5049999952 -2.0499999523 4.388999939 -2.5209999084 6.4930000305 -1.0160000324 L 65.9280014038 42.2649993896 C 67.9960021973 43.7709999084 68.4489974976 46.672000885 66.9440002441 48.7579994202 C 65.43800354 50.8079986572 62.5550003052 51.2789993286 60.4510002136 49.7739982605 L 1.0160000324 6.4930000305 C -1.0520000458 4.9869999886 -1.5049999952 2.0850000381 0 0" style="fill: rgb(255, 107, 41); fill-opacity: 1;"></path>
      </g>
      <g transform="translate(130.1567 221.9443)">
        <path d="M 0 0 C -1.5049999952 -2.0859999657 -1.0520000458 -4.9869999886 1.0160000324 -6.4930000305 L 60.4510002136 -49.7739982605 C 62.5550003052 -51.2789993286 65.43800354 -50.8079986572 66.9440002441 -48.7589988708 C 68.4489974976 -46.6730003357 67.9960021973 -43.7709999084 65.9280014038 -42.2659988403 L 6.4930000305 1.0160000324 C 4.388999939 2.5209999084 1.5049999952 2.0499999523 0 0" style="fill: rgb(255, 107, 41); fill-opacity: 1;"></path>
      </g>
    </g>
  </g>
</svg><style>@media (prefers-color-scheme: light) { :root { filter: none; } }
@media (prefers-color-scheme: dark) { :root { filter: none; } }
</style></svg>